<?xml version="1.0" encoding="UTF-8"?>
<!DOCTYPE svg PUBLIC "-//W3C//DTD SVG 1.1//EN" "http://www.w3.org/Graphics/SVG/1.1/DTD/svg11.dtd">
<!-- Creator: CorelDRAW -->
<svg xmlns="http://www.w3.org/2000/svg" xml:space="preserve" width="2048px" height="2048px" style="shape-rendering:geometricPrecision; text-rendering:geometricPrecision; image-rendering:optimizeQuality; fill-rule:evenodd; clip-rule:evenodd"
viewBox="0 0 2048 2048"
 xmlns:xlink="http://www.w3.org/1999/xlink">
 <defs>
  <style type="text/css">
   <![CDATA[
    .fil1 {fill:none}
    .fil0 {fill:#212121;fill-rule:nonzero}
   ]]>
  </style>
 </defs>
 <g id="Layer_x0020_1">
  <metadata id="CorelCorpID_0Corel-Layer"/>
  <g id="_393276040">
   <path id="_393285160" class="fil0" d="M1247.24 1478.47l-444.816 0 -41.9504 0 11.2004 -40.5012 113.694 -411.12c-32.263,-19.989 -59.0056,-46.7929 -78.6851,-78.0945 -24.3236,-38.687 -37.93,-84.0898 -37.93,-131.858 0,-68.126 27.7181,-129.933 72.4784,-174.725 44.8276,-44.8571 106.637,-72.6402 174.743,-72.6402 68.2064,0 130.052,27.7406 174.838,72.5268 44.7863,44.7863 72.5268,106.631 72.5268,174.839 0,42.3756 -10.9287,83.282 -30.7477,119.264 -16.1291,29.2855 -38.1957,55.2933 -65.0918,76.1528l110.616 426.156 10.3819 40.0004 -41.2571 0zm-402.866 -64.0016l361.608 0 -105.782 -407.531 -5.84882 -22.5295 19.7244 -12.4701c26.4083,-16.6949 47.7591,-39.7347 62.5146,-66.528 14.661,-26.6197 22.7469,-56.9764 22.7469,-88.5131 0,-50.5418 -20.5689,-96.3816 -53.7756,-129.588 -33.2055,-33.2067 -79.0465,-53.7756 -129.587,-53.7756 -50.5973,0 -96.3922,20.5158 -129.493,53.6386 -33.1796,33.2032 -53.7272,79.089 -53.7272,129.725 0,35.687 10.0193,69.3733 27.9284,97.8591 18.0614,28.7292 44.0835,52.3359 75.9001,67.5638l24.1099 11.5406 -7.11024 25.7103 -109.208 394.898z"/>
   <path id="_393275848" class="fil0" d="M1024.02 1824c-220.556,0 -420.564,-89.7272 -565.425,-234.582 -144.863,-144.858 -234.593,-344.859 -234.593,-565.402 0,-220.558 89.7284,-420.567 234.59,-565.428 144.861,-144.861 344.87,-234.59 565.428,-234.59 220.544,0 420.545,89.7296 565.402,234.593 144.855,144.861 234.582,344.869 234.582,565.425 0,220.542 -89.7284,420.542 -234.586,565.399 -144.856,144.858 -344.857,234.586 -565.399,234.586zm-520.174 -279.833c133.282,133.276 317.284,215.831 520.174,215.831 202.876,0 386.872,-82.5568 520.148,-215.835 133.278,-133.277 215.835,-317.273 215.835,-520.148 0,-202.89 -82.5556,-386.893 -215.831,-520.174 -133.279,-133.285 -317.275,-215.842 -520.152,-215.842 -202.892,0 -386.896,82.5568 -520.178,215.838 -133.282,133.282 -215.838,317.286 -215.838,520.178 0,202.877 82.5568,386.873 215.842,520.152z"/>
  </g>
  <g id="_393273304">
   <rect id="_393280696" class="fil1" width="2048" height="2048"/>
   <rect id="_393279160" class="fil1" x="255.999" y="255.999" width="1536" height="1536"/>
  </g>
 </g>
</svg>
