<?xml version="1.0" standalone="no"?>
<!DOCTYPE svg PUBLIC "-//W3C//DTD SVG 20010904//EN"
 "http://www.w3.org/TR/2001/REC-SVG-20010904/DTD/svg10.dtd">
<svg version="1.0" xmlns="http://www.w3.org/2000/svg"
 width="700.000000pt" height="700.000000pt" viewBox="0 0 700.000000 700.000000"
 preserveAspectRatio="xMidYMid meet">
<metadata>
Created by potrace 1.14, written by Peter Selinger 2001-2017
</metadata>
<g transform="translate(0.000000,700.000000) scale(0.100000,-0.100000)"
fill="#000000" stroke="none">
<path d="M3417 6234 c-1 -1 -52 -4 -114 -8 -61 -4 -122 -9 -135 -11 -12 -3
-45 -7 -73 -11 -110 -12 -335 -67 -480 -117 -346 -120 -637 -289 -915 -533
-161 -141 -304 -298 -428 -470 -58 -80 -186 -294 -221 -369 -72 -152 -87 -188
-122 -287 -64 -180 -119 -397 -134 -533 -4 -33 -9 -68 -11 -78 -23 -122 -22
-458 1 -635 3 -26 8 -67 11 -92 3 -25 7 -52 9 -60 2 -8 7 -29 10 -47 11 -67
48 -212 77 -303 193 -605 576 -1110 1113 -1467 317 -211 741 -372 1100 -418
28 -4 59 -8 71 -10 189 -28 505 -24 724 11 138 21 153 24 172 30 9 3 25 6 35
8 67 14 199 52 305 89 586 206 1105 629 1425 1162 224 372 348 753 389 1194
12 136 7 436 -10 541 -3 14 -7 48 -11 75 -40 332 -189 737 -389 1057 -40 63
-163 239 -175 248 -3 3 -24 28 -46 55 -66 83 -284 296 -390 381 -193 153 -429
294 -652 388 -191 80 -476 158 -658 181 -27 4 -61 8 -74 10 -59 10 -396 26
-404 19z m313 -229 c109 -11 132 -15 220 -31 114 -21 228 -49 325 -82 44 -14
82 -27 85 -27 3 -1 16 -6 30 -12 14 -6 50 -21 80 -33 160 -63 370 -185 550
-319 138 -103 359 -320 458 -451 39 -52 77 -101 83 -108 6 -8 41 -62 76 -120
252 -410 376 -845 377 -1312 0 -107 -10 -276 -19 -331 -4 -23 -9 -57 -21 -136
-10 -70 -74 -305 -110 -402 -50 -138 -182 -400 -260 -516 -223 -335 -546 -639
-854 -806 -25 -13 -47 -26 -50 -29 -9 -9 -178 -89 -262 -124 -158 -66 -443
-141 -608 -160 -209 -26 -460 -26 -659 0 -170 21 -393 78 -566 144 -113 43
-335 151 -399 195 -20 14 -39 25 -41 25 -9 0 -149 99 -235 168 -87 69 -277
251 -342 328 -57 68 -163 212 -202 274 -23 36 -47 75 -54 86 -16 25 -142 277
-164 330 -54 125 -122 367 -147 519 -18 111 -21 130 -28 220 -12 161 -7 365
12 530 4 36 7 54 21 135 19 105 89 355 119 425 7 17 23 55 35 85 85 210 257
487 415 670 71 82 267 270 345 331 405 315 885 503 1365 536 50 3 91 6 92 8 6
4 272 -4 333 -10z"/>
<path d="M3390 5048 c-323 -31 -608 -255 -715 -563 -35 -101 -44 -167 -41
-305 2 -121 6 -145 35 -230 58 -171 172 -330 300 -420 l58 -41 -44 -157 c-74
-264 -233 -839 -274 -987 -21 -77 -54 -196 -73 -265 -19 -68 -33 -127 -31
-130 4 -7 1783 -5 1790 2 3 3 -24 120 -60 259 -142 554 -205 797 -225 869 -11
41 -43 161 -70 265 l-49 190 54 51 c245 232 335 584 226 893 -97 278 -314 477
-599 551 -67 17 -200 26 -282 18z m235 -233 c217 -53 398 -236 455 -460 20
-79 21 -221 2 -295 -42 -159 -135 -288 -274 -381 -38 -26 -64 -50 -63 -59 2
-8 19 -76 38 -150 40 -153 117 -446 187 -720 26 -102 71 -273 99 -381 28 -108
51 -198 51 -200 0 -2 -277 -4 -615 -4 -338 0 -615 3 -615 7 0 3 41 154 91 335
50 180 95 342 99 358 4 17 27 98 50 180 23 83 47 173 55 200 7 28 32 116 54
197 23 82 41 152 41 156 0 5 -19 17 -42 28 -205 89 -343 263 -383 479 -7 38
-7 172 0 205 2 14 8 39 11 55 9 44 58 148 92 197 153 217 411 315 667 253z"/>
</g>
</svg>
